<?xml version="1.0" encoding="utf-8"?>
<svg viewBox="0 0 40 51" xmlns="http://www.w3.org/2000/svg" xmlns:xlink="http://www.w3.org/1999/xlink"><style>:root>svg{display:none}:root>svg:target{display:block}</style>
<svg fill="none" viewBox="0 0 40 51" id="Logo" xmlns="http://www.w3.org/2000/svg"><path d="M6.745 32.93c-3.06-3.826-4.594-8.093-4.603-12.799 0-4.985 1.76-9.233 5.28-12.745 3.466-3.422 7.654-5.173 12.564-5.254 4.901.054 9.099 1.805 12.592 5.254 3.52 3.503 5.28 7.751 5.28 12.745 0 4.715-1.543 8.982-4.63 12.799L26.35 41.12s-1.056.323-1.625-.27c-.244-.242-9.83-12.475-9.83-12.475" stroke="#35B8BE" stroke-width="5" stroke-miterlimit="3" stroke-linecap="square"/><path d="M13.758 27.002a4.71 4.71 0 01-1.083-1.778 4.816 4.816 0 01-.216-2.075c.081-1.482.677-2.694 1.814-3.665 1.11-.943 2.383-1.32 3.818-1.185.866.054 1.625.27 2.302.727a4.84 4.84 0 011.3 1.051l5.74 6.602" stroke="#35B8BE" stroke-width="5" stroke-miterlimit="3" stroke-linecap="round" stroke-linejoin="round"/><path d="M20.013 47.992L6.745 32.93m18.738 9.269L13.758 27.002l11.725 15.197z" stroke="#35B8BE" stroke-width="5" stroke-miterlimit="3" stroke-linecap="round"/></svg>
<svg fill="none" viewBox="0 0 25 17" id="backet" xmlns="http://www.w3.org/2000/svg"><path d="M3.832 2H0V0h6.462l.66 4h16.407v5.938L5.543 12.37 3.833 2zm18.962 15c-1.218 0-2.206-.672-2.206-1.5s.988-1.5 2.206-1.5S25 14.672 25 15.5s-.988 1.5-2.206 1.5zM8.088 17c-1.218 0-2.206-.672-2.206-1.5S6.87 14 8.088 14c1.219 0 2.206.672 2.206 1.5S9.307 17 8.088 17z" fill="#fff"/></svg>
<svg fill="none" viewBox="0 0 40 40" id="instagram" xmlns="http://www.w3.org/2000/svg"><path d="M.5 20C.5 9.23 9.23.5 20 .5S39.5 9.23 39.5 20 30.77 39.5 20 39.5.5 30.77.5 20z" stroke="#7E828F" stroke-opacity=".3"/><g clip-path="url(#cclip0_2_1415)"><path opacity=".5" d="M22.99 20a2.952 2.952 0 00-.878-2.118 2.949 2.949 0 00-2.106-.875 2.948 2.948 0 00-2.118.874 2.952 2.952 0 00-.873 2.118 2.949 2.949 0 001.836 2.77c.365.148.756.223 1.15.218a2.947 2.947 0 002.107-.874 2.948 2.948 0 00.877-2.118l.005.005zm1.626 0a4.636 4.636 0 01-1.356 3.266 4.633 4.633 0 01-3.258 1.353 4.633 4.633 0 01-3.265-1.356 4.635 4.635 0 01-1.356-3.266 4.634 4.634 0 014.62-4.623 4.634 4.634 0 013.266 1.356 4.636 4.636 0 011.352 3.266l-.003.004zm1.263-4.798c-.002.286-.116.56-.316.764a1.033 1.033 0 01-.763.3 1.033 1.033 0 01-1.065-1.064 1.036 1.036 0 01.652-.993c.131-.052.272-.077.413-.072a1.033 1.033 0 01.764.301c.2.204.313.477.315.763zm-5.877-2.573a89.82 89.82 0 00-2.7 0 8.447 8.447 0 00-2.6.362c-.192.076-.377.17-.552.281a2.879 2.879 0 00-.482.392 2.88 2.88 0 00-.392.482c-.111.175-.205.36-.281.552a8.454 8.454 0 00-.361 2.6A195.095 195.095 0 0012.61 20c0 .724.007 1.624.02 2.701-.015.882.108 1.76.365 2.603a2.879 2.879 0 00.673 1.034c.146.148.308.28.482.393.175.11.36.205.552.28.842.256 1.72.378 2.6.362 1.076.014 1.976.02 2.7.02.723 0 1.623-.006 2.7-.02a8.447 8.447 0 002.6-.361c.192-.076.376-.17.551-.281a2.87 2.87 0 00.482-.392c.148-.146.28-.308.392-.483.111-.175.205-.36.281-.552.256-.842.377-1.72.362-2.6.013-1.077.02-1.977.02-2.7 0-.724-.007-1.626-.021-2.706a8.454 8.454 0 00-.362-2.6 3.291 3.291 0 00-.28-.552 2.88 2.88 0 00-.393-.482 2.879 2.879 0 00-.482-.392 3.279 3.279 0 00-.552-.281 8.448 8.448 0 00-2.6-.362 89.73 89.73 0 00-2.698 0zm8.994 7.374a69.305 69.305 0 01-.06 3.715 7.077 7.077 0 01-.361 2.028 4.474 4.474 0 01-1.104 1.723 4.473 4.473 0 01-1.727 1.1 7.067 7.067 0 01-2.028.362 62.706 62.706 0 01-3.714.06 65.183 65.183 0 01-3.715-.055 7.07 7.07 0 01-2.027-.366 4.472 4.472 0 01-1.73-1.1 4.473 4.473 0 01-1.104-1.727 7.073 7.073 0 01-.362-2.028 67.727 67.727 0 01-.06-3.715c-.013-1.232.007-2.47.06-3.714.021-.69.143-1.373.361-2.028a4.474 4.474 0 011.104-1.728 4.473 4.473 0 011.726-1.104 7.07 7.07 0 012.028-.361 69.191 69.191 0 013.713-.06c1.232-.013 2.47.007 3.714.06a7.07 7.07 0 012.027.361c.652.23 1.242.607 1.723 1.103a4.475 4.475 0 011.104 1.727c.219.655.34 1.338.361 2.028a67.93 67.93 0 01.062 3.715l.009.004z" fill="#0C2050"/></g><defs><clipPath id="cclip0_2_1415"><path fill="#fff" transform="translate(11 11)" d="M0 0h18v18H0z"/></clipPath></defs></svg>
<svg fill="none" viewBox="0 0 27 26" id="star" xmlns="http://www.w3.org/2000/svg"><path d="M26.345 9.569H16.28L13.18 0 10.07 9.569 0 9.55l8.14 5.92-3.116 9.57 8.14-5.921 8.14 5.92-3.1-9.568 8.14-5.903z" fill="#00B67A"/></svg>
<svg fill="none" viewBox="0 0 40 40" id="twitter" xmlns="http://www.w3.org/2000/svg"><path d="M.5 20C.5 9.23 9.23.5 20 .5S39.5 9.23 39.5 20 30.77 39.5 20 39.5.5 30.77.5 20z" stroke="#7E828F" stroke-opacity=".3"/><g clip-path="url(#eclip0_2_1410)"><path opacity=".5" d="M29 13.782a7.466 7.466 0 01-2.121.595 3.82 3.82 0 001.628-2.106 7.154 7.154 0 01-2.355.92 3.691 3.691 0 00-1.199-.876A3.526 3.526 0 0023.46 12a3.584 3.584 0 00-1.413.286 3.768 3.768 0 00-1.999 2.05c-.186.46-.28.954-.279 1.451 0 .291.031.581.092.866a10.362 10.362 0 01-4.271-1.182 10.537 10.537 0 01-3.336-2.784 4.054 4.054 0 00-.492 1.911 3.774 3.774 0 001.636 3.159 3.594 3.594 0 01-1.677-.473v.036c.003.88.302 1.733.847 2.414.54.67 1.289 1.13 2.12 1.299-.318.098-.649.148-.981.148-.23 0-.46-.023-.686-.072.229.746.68 1.399 1.29 1.867a3.7 3.7 0 002.154.766 7.498 7.498 0 01-4.592 1.619c-.292 0-.583-.02-.873-.055.826.544 1.723.966 2.663 1.253.973.297 1.983.446 2.997.442 3.411-.132 6.013-1.3 7.806-3.508a11.36 11.36 0 002.706-7.276c0-.156-.006-.318-.017-.487a7.785 7.785 0 001.844-1.943l.002-.004z" fill="#0C2050"/></g><defs><clipPath id="eclip0_2_1410"><path fill="#fff" transform="translate(11 12)" d="M0 0h18v15H0z"/></clipPath></defs></svg>
<svg fill="none" viewBox="0 0 40 40" id="youtube" xmlns="http://www.w3.org/2000/svg"><path d="M.5 20C.5 9.23 9.23.5 20 .5S39.5 9.23 39.5 20 30.77 39.5 20 39.5.5 30.77.5 20z" stroke="#7E828F" stroke-opacity=".3"/><g clip-path="url(#fclip0_2_1420)"><path opacity=".5" d="M28.613 15.048c.188.912.296 1.838.325 2.77.041 1.03.062 1.593.062 1.69 0 .096-.02.66-.062 1.69a16.316 16.316 0 01-.325 2.77 2.55 2.55 0 01-.587 1.037 2.106 2.106 0 01-1.012.602c-1.332.218-2.678.33-4.027.333-1.783.042-2.78.063-2.99.063-.212 0-1.209-.021-2.992-.063a25.26 25.26 0 01-4.026-.333 2.105 2.105 0 01-1.013-.602 2.548 2.548 0 01-.579-1.038 16.316 16.316 0 01-.326-2.769c-.04-1.03-.061-1.594-.061-1.69 0-.097.02-.66.062-1.69.03-.932.138-1.858.325-2.77.11-.39.311-.747.588-1.037.277-.29.628-.495 1.012-.594 1.33-.232 2.677-.35 4.027-.35 1.783-.043 2.78-.064 2.99-.064.212 0 1.209.021 2.992.063 1.35.001 2.696.119 4.026.351.385.099.735.304 1.013.594.275.29.476.647.584 1.037h-.006zm-10.456 7.193l4.704-2.736-4.704-2.748v5.484z" fill="#0C2050"/></g><defs><clipPath id="fclip0_2_1420"><path fill="#fff" transform="translate(11 13)" d="M0 0h18v13H0z"/></clipPath></defs></svg>
</svg>